<svg xmlns="http://www.w3.org/2000/svg" width="254" height="46" viewBox="0 0 254 46">
    <defs>
        <linearGradient id="a" x1="50%" x2="50%" y1="0%" y2="100%">
            <stop offset="0%" stop-color="#FBDA61"/>
            <stop offset="100%" stop-color="#F76B1C"/>
        </linearGradient>
    </defs>
    <g fill="none" fill-rule="evenodd">
        <g fill="url(#a)">
            <path d="M14.24 31.94c-.117-6.467 4.687-13.966 14.01-13.94 8.149.022 13.762 5.942 13.977 14.042.2 7.486-6.4 13.814-13.968 13.816-7.845.003-14.02-6.127-14.019-13.918zm22.998.06a9 9 0 1 1-18 0 9 9 0 0 1 18 0zM13.423 44.138c-3.471-2.246-7.24-4.158-8.789-8.25-.739-1.952-1.089-4.157-1.115-6.255-.068-5.398.165-10.8.236-16.2.053-3.95-.392-7.805-2.53-11.268C.936 1.698.642 1.235.238.59c3.988 2.405 8.114 4.572 9.374 9.269.844 3.147 1.128 6.503 1.227 9.779.151 4.976-.19 9.967-.09 14.947.045 2.197.552 4.41 1.071 6.56.25 1.03 1.017 1.934 1.603 2.993"/>
        </g>
        <g fill="url(#a)" transform="matrix(-1 0 0 1 254 1)">
            <path d="M14.002 30.94c-.117-6.467 4.687-13.966 14.01-13.94 8.149.022 13.762 5.942 13.977 14.042.2 7.486-6.4 13.814-13.968 13.816-7.845.003-14.02-6.127-14.019-13.918zM37 31a9 9 0 1 1-18 0 9 9 0 0 1 18 0zM13.185 43.548c-3.471-2.246-7.24-4.158-8.789-8.249-.739-1.953-1.089-4.158-1.115-6.255-.068-5.398.165-10.8.236-16.2.052-3.95-.392-7.805-2.53-11.269C.698 1.108.404.645 0 0c3.988 2.406 8.114 4.573 9.374 9.27.844 3.146 1.128 6.502 1.227 9.778.151 4.977-.19 9.968-.09 14.947.045 2.197.552 4.41 1.071 6.56.249 1.03 1.017 1.935 1.603 2.993"/>
        </g>
        <path fill="#FFF" d="M64.523 33.148H52.008c.015 1.454.308 2.735.879 3.844.57 1.11 1.328 1.945 2.273 2.508a6.005 6.005 0 0 0 3.13.844c.765 0 1.464-.09 2.097-.27a6.832 6.832 0 0 0 1.84-.844c.593-.382 1.14-.792 1.64-1.23.5-.438 1.149-1.031 1.946-1.781.328-.282.796-.422 1.406-.422.656 0 1.187.18 1.594.539.406.36.609.867.609 1.523 0 .579-.227 1.254-.68 2.028-.453.773-1.137 1.515-2.05 2.226-.915.711-2.063 1.301-3.446 1.77-1.383.469-2.973.703-4.77.703-4.109 0-7.304-1.172-9.585-3.516-2.282-2.343-3.422-5.523-3.422-9.539 0-1.89.281-3.644.843-5.261.563-1.618 1.383-3.004 2.461-4.16 1.079-1.157 2.407-2.044 3.985-2.66 1.578-.618 3.328-.927 5.25-.927 2.5 0 4.644.528 6.433 1.582 1.79 1.055 3.13 2.418 4.02 4.09.89 1.672 1.336 3.375 1.336 5.11 0 1.61-.461 2.652-1.383 3.129-.922.476-2.219.714-3.89.714zm-12.515-3.632h11.601c-.156-2.188-.746-3.825-1.77-4.91-1.023-1.086-2.37-1.63-4.042-1.63-1.594 0-2.902.551-3.926 1.653-1.023 1.101-1.644 2.73-1.863 4.887zm39.351 11.46c-1.547 1.204-3.043 2.106-4.488 2.708-1.445.601-3.066.902-4.863.902-1.64 0-3.082-.324-4.324-.973-1.243-.648-2.2-1.527-2.871-2.636a6.842 6.842 0 0 1-1.008-3.61c0-1.75.554-3.242 1.664-4.476 1.11-1.235 2.633-2.063 4.57-2.485.406-.094 1.414-.304 3.023-.633 1.61-.328 2.989-.628 4.137-.902a79.124 79.124 0 0 0 3.739-.996c-.079-1.688-.418-2.926-1.02-3.715-.602-.789-1.848-1.183-3.738-1.183-1.625 0-2.848.226-3.668.68-.82.452-1.524 1.132-2.11 2.038-.586.907-1 1.504-1.242 1.793-.242.29-.762.434-1.558.434-.72 0-1.34-.23-1.864-.692-.523-.46-.785-1.05-.785-1.77 0-1.124.399-2.218 1.195-3.28.797-1.063 2.04-1.938 3.727-2.625 1.688-.688 3.789-1.032 6.305-1.032 2.812 0 5.023.332 6.632.997 1.61.664 2.747 1.714 3.41 3.152.665 1.437.997 3.344.997 5.719a524.475 524.475 0 0 1-.047 7.312c0 1.203.2 2.457.598 3.762.398 1.305.597 2.144.597 2.52 0 .656-.308 1.253-.926 1.792-.617.54-1.316.809-2.097.809-.657 0-1.305-.309-1.946-.926-.64-.617-1.32-1.512-2.039-2.683zm-.421-9.257c-.938.344-2.301.707-4.09 1.09-1.79.382-3.028.664-3.715.843-.688.18-1.344.532-1.969 1.055-.625.523-.937 1.254-.937 2.191 0 .97.367 1.793 1.101 2.473.735.68 1.695 1.02 2.883 1.02 1.266 0 2.434-.278 3.504-.832 1.07-.555 1.855-1.27 2.355-2.145.578-.969.868-2.562.868-4.781v-.914zm11.93-12.586h.702v-3.844c0-1.031.028-1.84.082-2.426.055-.586.207-1.09.457-1.511.25-.438.61-.793 1.079-1.067.468-.273.992-.41 1.57-.41.812 0 1.547.305 2.203.914.437.406.715.902.832 1.488.117.586.176 1.418.176 2.496v4.36h2.344c.906 0 1.597.215 2.074.644.476.43.715.98.715 1.653 0 .86-.34 1.46-1.02 1.804-.68.344-1.652.516-2.918.516h-1.195v11.766c0 1 .035 1.77.105 2.308.07.54.258.977.563 1.313.304.336.8.504 1.488.504.375 0 .883-.067 1.523-.2.641-.132 1.141-.199 1.5-.199.516 0 .98.207 1.395.621.414.414.621.926.621 1.535 0 1.032-.562 1.82-1.687 2.368-1.125.547-2.743.82-4.852.82-2 0-3.516-.336-4.547-1.008a4.677 4.677 0 0 1-2.027-2.789c-.32-1.187-.48-2.773-.48-4.758V23.75h-.844c-.922 0-1.625-.219-2.11-.656-.484-.438-.726-.992-.726-1.664 0-.672.254-1.223.761-1.653.508-.43 1.246-.644 2.215-.644zm20.624 3.422l4.172 14.297 3.797-13.29c.406-1.39.707-2.34.902-2.847.196-.508.563-.992 1.102-1.453.539-.461 1.277-.692 2.215-.692.953 0 1.699.23 2.238.692.539.46.918.96 1.137 1.5.218.539.523 1.472.914 2.8l3.797 13.29 4.218-14.297c.282-1.032.508-1.778.68-2.239.172-.46.461-.867.867-1.218.407-.352.992-.528 1.758-.528s1.43.266 1.992.797c.563.531.844 1.156.844 1.875 0 .656-.242 1.649-.727 2.977l-5.226 15.328c-.453 1.297-.805 2.234-1.055 2.812-.25.579-.644 1.094-1.183 1.547-.54.453-1.278.68-2.215.68-.969 0-1.73-.242-2.285-.727a4.382 4.382 0 0 1-1.23-1.78c-.267-.704-.556-1.618-.868-2.743l-3.656-12.469-3.54 12.469c-.468 1.734-.976 3.043-1.523 3.926-.547.883-1.508 1.324-2.883 1.324-.703 0-1.3-.137-1.793-.41a3.454 3.454 0 0 1-1.23-1.172 8.82 8.82 0 0 1-.867-1.805c-.25-.695-.446-1.246-.586-1.652l-5.18-15.328c-.516-1.438-.773-2.43-.773-2.977 0-.687.273-1.304.82-1.851.547-.547 1.219-.82 2.016-.82 1.062 0 1.78.3 2.156.902.375.601.773 1.629 1.195 3.082zm52.266 10.593h-12.516c.016 1.454.309 2.735.88 3.844.57 1.11 1.327 1.945 2.273 2.508a6.005 6.005 0 0 0 3.128.844c.766 0 1.465-.09 2.098-.27a6.832 6.832 0 0 0 1.84-.844c.594-.382 1.14-.792 1.64-1.23.5-.438 1.149-1.031 1.946-1.781.328-.282.797-.422 1.406-.422.656 0 1.188.18 1.594.539.406.36.61.867.61 1.523 0 .579-.227 1.254-.68 2.028-.454.773-1.137 1.515-2.051 2.226-.914.711-2.063 1.301-3.446 1.77-1.382.469-2.972.703-4.77.703-4.108 0-7.304-1.172-9.585-3.516-2.281-2.343-3.422-5.523-3.422-9.539 0-1.89.281-3.644.844-5.261.562-1.618 1.383-3.004 2.46-4.16 1.079-1.157 2.407-2.044 3.985-2.66 1.578-.618 3.328-.927 5.25-.927 2.5 0 4.645.528 6.434 1.582 1.789 1.055 3.129 2.418 4.02 4.09.89 1.672 1.335 3.375 1.335 5.11 0 1.61-.46 2.652-1.383 3.129-.921.476-2.218.714-3.89.714zm-12.516-3.632h11.602c-.157-2.188-.746-3.825-1.77-4.91-1.023-1.086-2.37-1.63-4.043-1.63-1.594 0-2.902.551-3.926 1.653-1.023 1.101-1.644 2.73-1.863 4.887zm41.04 3.632h-12.516c.015 1.454.308 2.735.879 3.844.57 1.11 1.328 1.945 2.273 2.508a6.005 6.005 0 0 0 3.129.844c.766 0 1.465-.09 2.098-.27a6.832 6.832 0 0 0 1.84-.844c.593-.382 1.14-.792 1.64-1.23.5-.438 1.148-1.031 1.945-1.781.328-.282.797-.422 1.407-.422.656 0 1.187.18 1.593.539.407.36.61.867.61 1.523 0 .579-.227 1.254-.68 2.028-.453.773-1.137 1.515-2.05 2.226-.915.711-2.063 1.301-3.446 1.77-1.383.469-2.973.703-4.77.703-4.109 0-7.304-1.172-9.586-3.516-2.28-2.343-3.421-5.523-3.421-9.539 0-1.89.28-3.644.843-5.261.563-1.618 1.383-3.004 2.461-4.16 1.078-1.157 2.406-2.044 3.985-2.66 1.578-.618 3.328-.927 5.25-.927 2.5 0 4.644.528 6.433 1.582 1.79 1.055 3.13 2.418 4.02 4.09.89 1.672 1.336 3.375 1.336 5.11 0 1.61-.461 2.652-1.383 3.129-.922.476-2.219.714-3.89.714zm-12.516-3.632h11.601c-.156-2.188-.746-3.825-1.77-4.91-1.023-1.086-2.37-1.63-4.042-1.63-1.594 0-2.903.551-3.926 1.653-1.024 1.101-1.645 2.73-1.863 4.887z"/>
    </g>
</svg>
