<svg xmlns="http://www.w3.org/2000/svg" width="25" height="27" viewBox="0 0 25 27">
    <defs>
        <linearGradient id="a" x1="50%" x2="50%" y1="0%" y2="100%">
            <stop offset="0%" stop-color="#FBDA61"/>
            <stop offset="100%" stop-color="#F76B1C"/>
        </linearGradient>
    </defs>
    <g fill="url(#a)" fill-rule="evenodd" transform="translate(-1437 -26)">
        <path d="M1445.28 44.57c-.07-3.76 2.724-8.12 8.145-8.105 4.737.013 8 3.455 8.126 8.164.116 4.352-3.721 8.031-8.122 8.033-4.56.001-8.15-3.563-8.15-8.092zm13.37.035a5.233 5.233 0 1 1-10.465 0 5.233 5.233 0 0 1 10.465 0zM1444.804 51.661c-2.018-1.305-4.21-2.417-5.11-4.795-.43-1.136-.633-2.418-.648-3.637-.04-3.139.096-6.28.137-9.419.03-2.297-.228-4.538-1.47-6.551-.169-.272-.34-.541-.575-.916 2.32 1.398 4.718 2.658 5.45 5.389.491 1.83.656 3.78.714 5.685.088 2.894-.111 5.795-.052 8.69.026 1.278.32 2.564.622 3.815.145.598.591 1.124.932 1.74"/>
    </g>
</svg>
