<svg xmlns="http://www.w3.org/2000/svg" width="117" height="128" viewBox="0 0 117 128">
    <g fill="none" fill-rule="evenodd" transform="translate(.992)">
        <path fill="#FFF" d="M111.994 11.58H97.636V2.896C97.636 1.303 96.344 0 94.764 0H8.616C7.03 0 5.743 1.303 5.743 2.895v11.58h8.615c3.164 0 5.743 2.6 5.743 5.79 0 3.203-2.579 5.79-5.743 5.79H5.743v5.79h8.615c3.164 0 5.743 2.599 5.743 5.79 0 3.201-2.579 5.79-5.743 5.79H5.743v5.79h8.615c3.164 0 5.743 2.6 5.743 5.79 0 3.201-2.579 5.79-5.743 5.79H5.743v5.79h8.615c3.164 0 5.743 2.6 5.743 5.79 0 3.202-2.579 5.79-5.743 5.79H5.743v5.79h8.615c3.164 0 5.743 2.6 5.743 5.79 0 3.202-2.579 5.79-5.743 5.79H5.743v5.79h8.615c3.164 0 5.743 2.6 5.743 5.79 0 3.202-2.579 5.79-5.743 5.79H5.743v11.58c0 1.598 1.287 2.896 2.873 2.896h86.148c1.58 0 2.872-1.298 2.872-2.897V110.01h14.358c1.58 0 2.872-1.297 2.872-2.896V14.475c0-1.592-1.292-2.894-2.872-2.894zM74.662 49.217c0 1.597-1.292 2.894-2.872 2.894H37.33c-1.583 0-2.87-1.297-2.87-2.894v-23.16c0-1.594 1.287-2.896 2.87-2.896h34.46c1.58 0 2.872 1.302 2.872 2.896v23.16zM97.636 86.85h11.487v17.37H97.636V86.85zm0-23.16h11.487v17.37H97.636V63.69zm0-23.16h11.487V57.9H97.636V40.53zm0-23.16h11.487v17.37H97.636V17.37zM2.87 23.16h11.487c1.58 0 2.872-1.303 2.872-2.895s-1.292-2.895-2.872-2.895H2.871C1.287 17.37 0 18.673 0 20.265s1.287 2.895 2.871 2.895zm0 17.37h11.487c1.58 0 2.872-1.303 2.872-2.895s-1.292-2.895-2.872-2.895H2.871C1.287 34.74 0 36.043 0 37.635s1.287 2.895 2.871 2.895zm0 17.37h11.487c1.58 0 2.872-1.303 2.872-2.895s-1.292-2.895-2.872-2.895H2.871C1.287 52.11 0 53.413 0 55.005S1.287 57.9 2.871 57.9zm0 17.37h11.487c1.58 0 2.872-1.303 2.872-2.895s-1.292-2.895-2.872-2.895H2.871C1.287 69.48 0 70.783 0 72.375s1.287 2.895 2.871 2.895zm0 17.37h11.487c1.58 0 2.872-1.303 2.872-2.895s-1.292-2.895-2.872-2.895H2.871C1.287 86.85 0 88.153 0 89.745s1.287 2.895 2.871 2.895zm14.359 14.475c0-1.592-1.292-2.894-2.872-2.894H2.871c-1.584 0-2.871 1.302-2.871 2.894 0 1.593 1.287 2.897 2.871 2.897h11.487c1.58-.002 2.872-1.304 2.872-2.897z"/>
        <rect width="11.906" height="18" x="98.227" y="40" fill="#F5A623" rx="1"/>
    </g>
</svg>
