<svg xmlns="http://www.w3.org/2000/svg" width="124" height="141" viewBox="0 0 124 141">
    <defs>
        <filter id="a" width="200%" height="200%" x="-50%" y="-50%" filterUnits="objectBoundingBox">
            <feOffset dy="1" in="SourceAlpha" result="shadowOffsetOuter1"/>
            <feGaussianBlur in="shadowOffsetOuter1" result="shadowBlurOuter1" stdDeviation="1.5"/>
            <feColorMatrix in="shadowBlurOuter1" result="shadowMatrixOuter1" values="0 0 0 0 0 0 0 0 0 0 0 0 0 0 0 0 0 0 0.21 0"/>
            <feMerge>
                <feMergeNode in="shadowMatrixOuter1"/>
                <feMergeNode in="SourceGraphic"/>
            </feMerge>
        </filter>
    </defs>
    <g fill="none" fill-rule="evenodd" transform="translate(3.273)">
        <ellipse cx="67.469" cy="31" fill="#F6A623" rx="30.758" ry="31"/>
        <path fill="#FFF" d="M80.896 24.416c.97-2.175 1.103-4.59-.626-6.403-1.458-1.53-4.096.474-2.622 2.02 2.655 2.786-3.26 6.183-4.776 8.177-1.4 1.844-1.675 4.402-.536 6.4 1.042 1.831 4.103.576 3.045-1.284-2.08-3.655 4.222-6.012 5.515-8.91zm-29.814 3.48c.884 2.142 2.95 3.666 5.238 3.679 2.1.016 2.554-3.278.422-3.291-4.187-.03-3.051-6.688-4.896-9.269-1.384-1.935-3.396-3.26-5.825-2.667-2.048.499-1.648 3.796.423 3.293 3.728-.91 3.683 5.94 4.638 8.254zM40.948 83.541v16.032a2.331 2.331 0 0 0 2.325 2.337 2.332 2.332 0 0 0 2.326-2.337V85.008l-7.367-7.816a6.931 6.931 0 0 1-1.7-6.38l1.775-7.428h-2.071l1.555-2.37c.325.153.67.27 1.032.344a6.93 6.93 0 0 1 1.825-2.843 6.828 6.828 0 0 1 3.964-1.806 6.07 6.07 0 0 1 .687-.042V49.02a2.33 2.33 0 0 0-2.326-2.338 2.333 2.333 0 0 0-2.325 2.338v2.82a4.683 4.683 0 0 0-1.716 0v-6.655a2.333 2.333 0 0 0-2.329-2.338 2.33 2.33 0 0 0-2.321 2.338v12.688l-1.13 1.718-1.125-1.718V45.185a2.333 2.333 0 0 0-2.325-2.338 2.333 2.333 0 0 0-2.326 2.338v6.655a4.707 4.707 0 0 0-2.548.227V41.2a2.33 2.33 0 0 0-2.325-2.337 2.331 2.331 0 0 0-2.325 2.337v12.692l-1.426 2.175V45.185a2.333 2.333 0 0 0-2.325-2.338 2.333 2.333 0 0 0-2.326 2.338v2.901a4.773 4.773 0 0 0-1.687-.311c-2.664 0-4.825 2.168-4.825 4.85 0 2.677 2.161 4.846 4.825 4.846.594 0 1.16-.11 1.687-.308v1.41c0 .286.058.564.158.827H8.263L4.651 53.89V41.2a2.332 2.332 0 0 0-2.326-2.337A2.332 2.332 0 0 0 0 41.2v13.393c0 .456.132.904.384 1.286l6.27 9.56v10.219c-.03.15-.045.305-.045.464V95.59a2.33 2.33 0 0 0 2.325 2.338 2.33 2.33 0 0 0 2.326-2.338V79.559h2.312v16.03a2.332 2.332 0 0 0 2.325 2.339 2.332 2.332 0 0 0 2.325-2.338V76.122c0-.159-.015-.315-.044-.464v-10.17l2.58 3.936v10.219c-.03.149-.045.304-.045.463v19.468a2.33 2.33 0 0 0 2.325 2.337 2.332 2.332 0 0 0 2.326-2.337V83.542h2.309v16.032a2.331 2.331 0 0 0 2.325 2.337 2.331 2.331 0 0 0 2.325-2.337V80.106c0-.159-.015-.314-.044-.463V69.424l.876-1.34.878 1.34v10.219c-.029.149-.045.304-.045.463v19.468a2.332 2.332 0 0 0 2.325 2.337 2.332 2.332 0 0 0 2.326-2.337V83.542h2.31zm9.65-24.411c.242-.385.497-.756.777-1.11.261-.326.535-.644.832-.939.516-.525 1.08-.995 1.69-1.413.661-.454 1.377-.84 2.129-1.151V50.77a2.332 2.332 0 0 0-2.325-2.337c-.571 0-1.09.217-1.494.56v-3.808a2.333 2.333 0 0 0-2.328-2.338 2.33 2.33 0 0 0-2.322 2.338v11.852a6.819 6.819 0 0 1 1.486.723c.59.379 1.113.843 1.555 1.37zm-1.525 29.564l-1.817-1.93v13.957l1.817-2.23v-9.797zm65.456-48.082a2.332 2.332 0 0 0-2.325 2.337v12.693l-3.612 5.511h-5.996c.1-.265.157-.541.157-.827v-1.413c.526.198 1.091.311 1.684.311 2.668 0 4.825-2.172 4.825-4.85 0-2.678-2.157-4.85-4.825-4.85-.593 0-1.158.114-1.684.311v-2.901a2.331 2.331 0 0 0-2.325-2.337 2.33 2.33 0 0 0-2.326 2.337V57.82l-1.428-2.178V42.95a2.332 2.332 0 0 0-2.325-2.337 2.333 2.333 0 0 0-2.326 2.337v10.87a4.787 4.787 0 0 0-1.687-.31c-.293 0-.58.029-.861.08v-6.655a2.332 2.332 0 0 0-2.325-2.337 2.332 2.332 0 0 0-2.326 2.337v12.692l-1.125 1.715-.178-.27v9.036l.178-.272.877 1.342v10.216c-.03.148-.045.304-.045.463v19.467a2.33 2.33 0 0 0 2.325 2.338 2.33 2.33 0 0 0 2.326-2.338v-16.03h2.312v16.03a2.329 2.329 0 0 0 2.326 2.338 2.33 2.33 0 0 0 2.325-2.338V81.857c0-.159-.016-.315-.048-.463V71.178l2.58-3.936V77.41a2.46 2.46 0 0 0-.045.463v19.471a2.333 2.333 0 0 0 2.325 2.338 2.33 2.33 0 0 0 2.326-2.338V81.31h2.312v16.034a2.332 2.332 0 0 0 2.325 2.338 2.332 2.332 0 0 0 2.325-2.338v-19.47a2.46 2.46 0 0 0-.044-.464V67.194l6.27-9.564c.251-.382.383-.83.383-1.287V42.95a2.332 2.332 0 0 0-2.325-2.337zM82.822 73.338c-.13.265-.272.527-.436.78l-9.13 13.924v14.488c.047.332.07.665.07.996v.11c.084.01.168.026.255.026a2.33 2.33 0 0 0 2.326-2.338v-16.03h2.312v16.03a2.329 2.329 0 0 0 2.326 2.338 2.33 2.33 0 0 0 2.325-2.338V81.857c0-.159-.02-.315-.048-.463v-8.056zM69.298 46.935a2.332 2.332 0 0 0-2.326-2.337 2.332 2.332 0 0 0-2.325 2.337v.304a2.307 2.307 0 0 0-1.497-.56 2.332 2.332 0 0 0-2.325 2.337v4.652c1.345.05 2.632.325 3.822.798.28.113.558.236.83.373a11.664 11.664 0 0 1 3.821 3.002V46.935zM19.13 36.68c1.387-1.828 1.448-4.403.3-6.416-1.239-2.179-6.66-6.325-3.667-8.737 1.661-1.339-.69-3.673-2.335-2.347-1.952 1.572-2.135 3.981-1.458 6.266.906 3.044 6.844 6.209 4.306 9.558-1.29 1.705 1.58 3.355 2.854 1.676zm86.092-14.187c2.119-.217 1.406-3.459-.69-3.248-2.484.255-3.945 2.175-4.609 4.464-.89 3.048 2.383 8.95-1.558 10.378-2.003.722-.487 3.675 1.487 2.962 2.154-.778 3.6-2.904 3.725-5.219.135-2.506-2.17-8.948 1.645-9.337zm-64.686 13.82c.354 2.293 2.003 4.267 4.222 4.825 2.035.512 3.254-2.578 1.187-3.1-4.064-1.021-1.39-7.223-2.574-10.17-.887-2.208-2.532-3.975-5.031-3.978-2.106-.002-2.497 3.294-.365 3.297 3.835.007 2.177 6.65 2.561 9.126zm-12.785.662c2.984 0 2.984-4.649 0-4.649-2.98 0-2.98 4.649 0 4.649zm-22.128-6.64c2.983 0 2.983-4.648 0-4.648-2.98 0-2.98 4.648 0 4.648zm62.093-10.624c-2.984 0-2.984 4.65 0 4.65 2.98 0 2.98-4.65 0-4.65zm-4.296 16.599c2.983 0 2.983-4.645 0-4.645-2.981 0-2.981 4.645 0 4.645zm7.837 48.753l8.372-12.77a3.62 3.62 0 0 0 .594-1.985V44.863a2.54 2.54 0 0 0-.016-.262 3.592 3.592 0 0 0-3.574-3.343c-1.98 0-3.586 1.615-3.586 3.605v24.363l-1.746 2.66-3.83 5.841H53.17l-5.995-6.36 1.19-4.98.468-1.952a3.119 3.119 0 0 0 .054-.305l.02-.14c.045-.414.02-.822-.071-1.212a3.576 3.576 0 0 0-2.654-2.69c-.027-.007-.049-.01-.071-.014a3.523 3.523 0 0 0-.775-.09c-.012 0-.025.003-.038.003a3.597 3.597 0 0 0-3.445 2.762l-.151.635-.232.98-1.726 7.219a3.634 3.634 0 0 0 .884 3.323l4.97 5.272 1.703 1.808 5.073 5.386v12.303l-.468.576-3.937 4.835-7.512 9.23a3.621 3.621 0 0 0 .341 4.933l9.144 8.485a3.572 3.572 0 0 0 5.067-.205 3.616 3.616 0 0 0-.203-5.096l-6.657-6.179 6.048-7.428h8.653v24.74c0 1.99 1.605 3.605 3.586 3.605 1.98 0 3.587-1.615 3.587-3.605v-30.04c0-.246-.026-.486-.071-.717V87.047l1.303-1.983zM52.369 67.22a8.316 8.316 0 0 0 4.067 5.359 8.24 8.24 0 0 0 3.973 1.02c3.248 0 6.054-1.886 7.405-4.629a8.257 8.257 0 0 0 .868-3.686c0-.652-.08-1.28-.223-1.887a8.3 8.3 0 0 0-5.409-5.99 8.308 8.308 0 0 0-2.225-.42c-.139-.008-.277-.022-.416-.022a8.2 8.2 0 0 0-4.383 1.271 8.316 8.316 0 0 0-3.841 6.144c-.007.045-.007.094-.013.14-.02.223-.033.45-.035.68 0 .026-.004.055-.004.084a8.314 8.314 0 0 0 .235 1.936z" filter="url(#a)"/>
    </g>
</svg>
