<svg xmlns="http://www.w3.org/2000/svg" width="145" height="142" viewBox="0 0 145 142">
    <g fill="none" fill-rule="evenodd" transform="translate(.742)">
        <ellipse cx="71.438" cy="111" fill="#F6A623" rx="30.758" ry="31"/>
        <path fill="#FFF" d="M71.938.302C32.273.49 0 33.166 0 73.142c0 12.141 3.02 24.11 8.732 34.715V88.599c0-3.551 1.251-6.84 3.45-9.664a61.593 61.593 0 0 1-.276-5.793c0-33.394 26.956-60.683 60.032-60.84 33.133.157 60.088 27.446 60.088 60.84 0 2.145-.12 4.285-.34 6.41 1.91 2.68 2.988 5.754 2.988 9.047v20.235c6.058-10.844 9.259-23.18 9.259-35.692 0-39.976-32.273-72.652-71.995-72.84zM13.166 85.49a10.737 10.737 0 0 0-.465 3.109v27.199c0 8.395 9.918 15.204 22.158 15.204h9.328V73.4H34.86c-10.686 0-19.6 5.188-21.693 12.09zm117.539 30.308V88.599c0-.656-.07-1.301-.186-1.933-1.384-7.481-10.69-13.266-21.972-13.266H99.22v57.602h9.328c12.236 0 22.158-6.809 22.158-15.204z"/>
    </g>
</svg>
